<svg width="40" height="42" viewBox="0 0 40 42" fill="none" xmlns="http://www.w3.org/2000/svg">
<rect width="39.7417" height="41.1663" fill="#F3F3F3"/>
<path d="M10 31.1663V10.407H15.0067V15.2916H15.1288V31.1663H10ZM24.5722 31.1663V18.0595C24.5722 16.7841 24.2466 15.8207 23.5953 15.1695C22.944 14.5182 21.9943 14.1926 20.746 14.1926C19.6605 14.1926 18.6836 14.4368 17.8153 14.9252C16.974 15.4137 16.3092 16.0921 15.8207 16.9605C15.3594 17.8288 15.1288 18.8329 15.1288 19.9726L14.5996 15.0067C15.3052 13.487 16.3363 12.2795 17.6931 11.384C19.05 10.4613 20.6781 10 22.5777 10C24.83 10 26.5803 10.6377 27.8286 11.9131C29.104 13.1885 29.7417 14.8845 29.7417 17.0012V31.1663H24.5722Z" fill="#1F1F1F"/>
</svg>
