<svg width="24" height="24" viewBox="0 0 24 24" fill="none" xmlns="http://www.w3.org/2000/svg">
<path d="M18.7612 5.23874C16.963 3.46948 14.5386 2.48245 12.016 2.49263C9.49334 2.50282 7.07693 3.50939 5.29309 5.29311C3.50925 7.07683 2.50251 9.49316 2.49215 12.0158C2.48179 14.5384 3.46865 16.9629 5.23778 18.7612C6.12305 19.6611 7.17772 20.3768 8.34096 20.867C9.5042 21.3572 10.753 21.6123 12.0153 21.6175C13.2776 21.6227 14.5284 21.3779 15.6957 20.8972C16.8629 20.4166 17.9234 19.7096 18.816 18.817C19.7087 17.9244 20.4157 16.864 20.8965 15.6968C21.3772 14.5296 21.6221 13.2788 21.617 12.0164C21.6119 10.7541 21.3569 9.50533 20.8668 8.34206C20.3766 7.17878 19.661 6.12406 18.7612 5.23874ZM9.19872 11.489L11.0409 9.31968L13.8403 9.83155L14.7975 12.5109L12.9553 14.6803L10.1559 14.1684L9.19872 11.489ZM19.6809 8.50218C20.2081 9.66536 20.465 10.9328 20.4326 12.2095C20.4001 13.4861 20.079 14.7389 19.4934 15.8737L14.2303 14.9137L19.6809 8.50218ZM19.1034 7.44467L15.6403 11.5209L12.8118 3.60186C14.7622 3.78438 16.5867 4.64492 17.9681 6.03374C18.3953 6.46259 18.7759 6.93555 19.1034 7.44467ZM6.03372 6.03842C7.516 4.5457 9.50557 3.66521 11.6072 3.57186L13.4062 8.60811L5.13278 7.0978C5.40363 6.71918 5.70494 6.36331 6.03372 6.03374V6.03842ZM4.49997 8.12624L9.7631 9.08624L4.31903 15.4978C3.79188 14.3346 3.5349 13.0672 3.56737 11.7905C3.59985 10.5139 3.92093 9.26112 4.50653 8.12624H4.49997ZM4.89466 16.5553L8.35778 12.479L11.1862 20.3981C9.23592 20.2156 7.41134 19.3551 6.02997 17.9662C5.60337 17.5373 5.22344 17.0643 4.89653 16.5553H4.89466ZM17.9643 17.9615C16.4816 19.4529 14.492 20.3318 12.3909 20.4234L10.5937 15.3919L18.8662 16.9022C18.5957 17.2808 18.2947 17.6366 17.9662 17.9662L17.9643 17.9615Z" fill="black"/>
</svg>
