<svg width="24" height="24" viewBox="0 0 24 24" fill="none" xmlns="http://www.w3.org/2000/svg">
<path d="M21.217 17.5475C19.5585 16.4084 19.2107 14.48 19.2107 13.0625C19.2107 11.3356 20.5101 9.84782 21.2845 9.11375C21.3399 9.06119 21.3841 8.99788 21.4143 8.92769C21.4445 8.85749 21.4601 8.78188 21.4601 8.70547C21.4601 8.62906 21.4445 8.55345 21.4143 8.48326C21.3841 8.41306 21.3399 8.34975 21.2845 8.29719C20.1482 7.22188 18.1861 6.5 16.3982 6.5C15.0576 6.50126 13.7493 6.91174 12.6482 7.67657C11.3872 6.79565 9.85555 6.38857 8.32358 6.52717C6.79161 6.66576 5.35786 7.34114 4.27543 8.43406C3.63757 9.086 3.13719 9.85943 2.80398 10.7085C2.47078 11.5575 2.31155 12.4648 2.33574 13.3766C2.37264 14.9338 2.71935 16.4681 3.35564 17.8899C3.99192 19.3116 4.90503 20.5924 6.04168 21.6575C6.70247 22.281 7.57724 22.6273 8.48574 22.625H16.7076C17.194 22.6266 17.6756 22.5282 18.1223 22.3358C18.5691 22.1434 18.9715 21.8611 19.3045 21.5066C19.9431 20.8202 20.4953 20.0583 20.9489 19.2378C21.5629 18.1128 21.4898 17.9488 21.4176 17.7866C21.3743 17.6897 21.3048 17.6069 21.217 17.5475ZM18.4767 20.735C18.2499 20.9769 17.9759 21.1696 17.6716 21.3012C17.3673 21.4328 17.0392 21.5004 16.7076 21.5H8.48574C7.8654 21.5031 7.26747 21.2683 6.81511 20.8438C5.78562 19.8793 4.95872 18.7193 4.38277 17.4315C3.80682 16.1437 3.49337 14.7541 3.46074 13.3438C3.43948 12.5831 3.57136 11.826 3.84853 11.1174C4.1257 10.4088 4.5425 9.76309 5.07418 9.21875C5.57283 8.71116 6.16813 8.30862 6.82492 8.03489C7.48171 7.76116 8.18669 7.62178 8.89824 7.625H8.97418C10.1842 7.63698 11.3548 8.0568 12.2967 8.81657C12.3964 8.89644 12.5204 8.93996 12.6482 8.93996C12.776 8.93996 12.9 8.89644 12.9998 8.81657C13.9621 8.04079 15.1622 7.62002 16.3982 7.625C17.7004 7.625 19.0992 8.06375 20.0648 8.75C19.1798 9.70063 18.0867 11.2428 18.0867 13.0625C18.0867 15.2919 18.8189 17.0563 20.2111 18.1972C19.7667 19.1286 19.1818 19.9861 18.4767 20.7397V20.735ZM12.8517 4.66719C13.0502 3.90278 13.497 3.22599 14.122 2.74319C14.747 2.2604 15.5147 1.99897 16.3045 2H16.3982C16.5474 2 16.6905 2.05927 16.796 2.16476C16.9015 2.27024 16.9607 2.41332 16.9607 2.5625C16.9607 2.71169 16.9015 2.85476 16.796 2.96025C16.6905 3.06574 16.5474 3.125 16.3982 3.125H16.3045C15.764 3.12489 15.2388 3.3044 14.8115 3.63533C14.3842 3.96625 14.079 4.42982 13.9439 4.95313C13.9066 5.09759 13.8134 5.22132 13.6849 5.29709C13.6213 5.33461 13.5508 5.35923 13.4777 5.36954C13.4045 5.37985 13.3301 5.37566 13.2586 5.35719C13.1141 5.31989 12.9904 5.22674 12.9146 5.09822C12.8771 5.03458 12.8524 4.96418 12.8421 4.89103C12.8318 4.81787 12.836 4.74341 12.8545 4.67188L12.8517 4.66719Z" fill="black"/>
</svg>
