<svg width="24" height="24" viewBox="0 0 24 24" fill="none" xmlns="http://www.w3.org/2000/svg">
<path d="M20.0625 8.4825V6.75C20.0625 5.80517 19.6872 4.89903 19.0191 4.23093C18.351 3.56283 17.4448 3.1875 16.5 3.1875H7.50001C6.55517 3.1875 5.64904 3.56283 4.98094 4.23093C4.31284 4.89903 3.93751 5.80517 3.93751 6.75V8.4825C3.10059 8.61608 2.33872 9.04366 1.78869 9.68844C1.23866 10.3332 0.936523 11.153 0.936523 12.0005C0.936523 12.848 1.23866 13.6677 1.78869 14.3125C2.33872 14.9573 3.10059 15.3849 3.93751 15.5184V18.75C3.93751 19.0981 4.07579 19.4319 4.32193 19.6781C4.56807 19.9242 4.90191 20.0625 5.25001 20.0625H18.75C19.0981 20.0625 19.4319 19.9242 19.6781 19.6781C19.9242 19.4319 20.0625 19.0981 20.0625 18.75V15.5184C20.8964 15.3818 21.6545 14.9532 22.2016 14.3093C22.7486 13.6653 23.049 12.8478 23.049 12.0028C23.049 11.1578 22.7486 10.3404 22.2016 9.69637C21.6545 9.05238 20.8964 8.62381 20.0625 8.48719V8.4825ZM7.50001 4.3125H16.5C17.1465 4.3125 17.7665 4.56931 18.2236 5.02643C18.6807 5.48355 18.9375 6.10353 18.9375 6.75V8.4825C18.1013 8.61718 17.3402 9.04503 16.7906 9.68949C16.2409 10.334 15.9385 11.153 15.9375 12V12.1875H8.06251V12C8.06148 11.153 7.75909 10.334 7.20944 9.68949C6.65979 9.04503 5.89875 8.61718 5.06251 8.4825V6.75C5.06251 6.10353 5.31931 5.48355 5.77643 5.02643C6.23355 4.56931 6.85354 4.3125 7.50001 4.3125ZM19.5328 14.4375H19.5C19.3508 14.4375 19.2077 14.4968 19.1023 14.6023C18.9968 14.7077 18.9375 14.8508 18.9375 15V18.75C18.9375 18.7997 18.9178 18.8474 18.8826 18.8826C18.8474 18.9177 18.7997 18.9375 18.75 18.9375H5.25001C5.20028 18.9375 5.15259 18.9177 5.11742 18.8826C5.08226 18.8474 5.06251 18.7997 5.06251 18.75V15C5.06251 14.8508 5.00324 14.7077 4.89775 14.6023C4.79226 14.4968 4.64919 14.4375 4.50001 14.4375H4.46719C3.98655 14.431 3.51855 14.2826 3.12205 14.0109C2.72554 13.7391 2.41823 13.3562 2.23877 12.9103C2.0593 12.4644 2.01569 11.9753 2.11341 11.5047C2.21113 11.034 2.44583 10.6028 2.78799 10.2652C3.13016 9.92755 3.5645 9.69864 4.03641 9.60721C4.50832 9.51579 4.99673 9.56594 5.44022 9.75135C5.8837 9.93677 6.26247 10.2492 6.52888 10.6493C6.79529 11.0494 6.93746 11.5193 6.93751 12V15.75C6.93751 15.8992 6.99677 16.0423 7.10226 16.1477C7.20775 16.2532 7.35082 16.3125 7.50001 16.3125C7.64919 16.3125 7.79226 16.2532 7.89775 16.1477C8.00324 16.0423 8.06251 15.8992 8.06251 15.75V13.3125H15.9375V15.75C15.9375 15.8992 15.9968 16.0423 16.1023 16.1477C16.2077 16.2532 16.3508 16.3125 16.5 16.3125C16.6492 16.3125 16.7923 16.2532 16.8978 16.1477C17.0032 16.0423 17.0625 15.8992 17.0625 15.75V12C17.0625 11.5193 17.2047 11.0494 17.4711 10.6493C17.7375 10.2492 18.1163 9.93677 18.5598 9.75135C19.0033 9.56594 19.4917 9.51579 19.9636 9.60721C20.4355 9.69864 20.8699 9.92755 21.212 10.2652C21.5542 10.6028 21.7889 11.034 21.8866 11.5047C21.9843 11.9753 21.9407 12.4644 21.7612 12.9103C21.5818 13.3562 21.2745 13.7391 20.878 14.0109C20.4815 14.2826 20.0135 14.431 19.5328 14.4375Z" fill="black"/>
</svg>
