<svg width="24" height="24" viewBox="0 0 24 24" fill="none" xmlns="http://www.w3.org/2000/svg">
    <symbol id="manzana">
        <path d="M21.217 17.5475C19.5585 16.4084 19.2107 14.48 19.2107 13.0625C19.2107 11.3356 20.5101 9.84782 21.2845 9.11375C21.3399 9.06119 21.3841 8.99788 21.4143 8.92769C21.4445 8.85749 21.4601 8.78188 21.4601 8.70547C21.4601 8.62906 21.4445 8.55345 21.4143 8.48326C21.3841 8.41306 21.3399 8.34975 21.2845 8.29719C20.1482 7.22188 18.1861 6.5 16.3982 6.5C15.0576 6.50126 13.7493 6.91174 12.6482 7.67657C11.3872 6.79565 9.85555 6.38857 8.32358 6.52717C6.79161 6.66576 5.35786 7.34114 4.27543 8.43406C3.63757 9.086 3.13719 9.85943 2.80398 10.7085C2.47078 11.5575 2.31155 12.4648 2.33574 13.3766C2.37264 14.9338 2.71935 16.4681 3.35564 17.8899C3.99192 19.3116 4.90503 20.5924 6.04168 21.6575C6.70247 22.281 7.57724 22.6273 8.48574 22.625H16.7076C17.194 22.6266 17.6756 22.5282 18.1223 22.3358C18.5691 22.1434 18.9715 21.8611 19.3045 21.5066C19.9431 20.8202 20.4953 20.0583 20.9489 19.2378C21.5629 18.1128 21.4898 17.9488 21.4176 17.7866C21.3743 17.6897 21.3048 17.6069 21.217 17.5475ZM18.4767 20.735C18.2499 20.9769 17.9759 21.1696 17.6716 21.3012C17.3673 21.4328 17.0392 21.5004 16.7076 21.5H8.48574C7.8654 21.5031 7.26747 21.2683 6.81511 20.8438C5.78562 19.8793 4.95872 18.7193 4.38277 17.4315C3.80682 16.1437 3.49337 14.7541 3.46074 13.3438C3.43948 12.5831 3.57136 11.826 3.84853 11.1174C4.1257 10.4088 4.5425 9.76309 5.07418 9.21875C5.57283 8.71116 6.16813 8.30862 6.82492 8.03489C7.48171 7.76116 8.18669 7.62178 8.89824 7.625H8.97418C10.1842 7.63698 11.3548 8.0568 12.2967 8.81657C12.3964 8.89644 12.5204 8.93996 12.6482 8.93996C12.776 8.93996 12.9 8.89644 12.9998 8.81657C13.9621 8.04079 15.1622 7.62002 16.3982 7.625C17.7004 7.625 19.0992 8.06375 20.0648 8.75C19.1798 9.70063 18.0867 11.2428 18.0867 13.0625C18.0867 15.2919 18.8189 17.0563 20.2111 18.1972C19.7667 19.1286 19.1818 19.9861 18.4767 20.7397V20.735ZM12.8517 4.66719C13.0502 3.90278 13.497 3.22599 14.122 2.74319C14.747 2.2604 15.5147 1.99897 16.3045 2H16.3982C16.5474 2 16.6905 2.05927 16.796 2.16476C16.9015 2.27024 16.9607 2.41332 16.9607 2.5625C16.9607 2.71169 16.9015 2.85476 16.796 2.96025C16.6905 3.06574 16.5474 3.125 16.3982 3.125H16.3045C15.764 3.12489 15.2388 3.3044 14.8115 3.63533C14.3842 3.96625 14.079 4.42982 13.9439 4.95313C13.9066 5.09759 13.8134 5.22132 13.6849 5.29709C13.6213 5.33461 13.5508 5.35923 13.4777 5.36954C13.4045 5.37985 13.3301 5.37566 13.2586 5.35719C13.1141 5.31989 12.9904 5.22674 12.9146 5.09822C12.8771 5.03458 12.8524 4.96418 12.8421 4.89103C12.8318 4.81787 12.836 4.74341 12.8545 4.67188L12.8517 4.66719Z" fill="black"/>
    </symbol>

    <symbol id="sofa">
        <path d="M20.0625 8.4825V6.75C20.0625 5.80517 19.6872 4.89903 19.0191 4.23093C18.351 3.56283 17.4448 3.1875 16.5 3.1875H7.50001C6.55517 3.1875 5.64904 3.56283 4.98094 4.23093C4.31284 4.89903 3.93751 5.80517 3.93751 6.75V8.4825C3.10059 8.61608 2.33872 9.04366 1.78869 9.68844C1.23866 10.3332 0.936523 11.153 0.936523 12.0005C0.936523 12.848 1.23866 13.6677 1.78869 14.3125C2.33872 14.9573 3.10059 15.3849 3.93751 15.5184V18.75C3.93751 19.0981 4.07579 19.4319 4.32193 19.6781C4.56807 19.9242 4.90191 20.0625 5.25001 20.0625H18.75C19.0981 20.0625 19.4319 19.9242 19.6781 19.6781C19.9242 19.4319 20.0625 19.0981 20.0625 18.75V15.5184C20.8964 15.3818 21.6545 14.9532 22.2016 14.3093C22.7486 13.6653 23.049 12.8478 23.049 12.0028C23.049 11.1578 22.7486 10.3404 22.2016 9.69637C21.6545 9.05238 20.8964 8.62381 20.0625 8.48719V8.4825ZM7.50001 4.3125H16.5C17.1465 4.3125 17.7665 4.56931 18.2236 5.02643C18.6807 5.48355 18.9375 6.10353 18.9375 6.75V8.4825C18.1013 8.61718 17.3402 9.04503 16.7906 9.68949C16.2409 10.334 15.9385 11.153 15.9375 12V12.1875H8.06251V12C8.06148 11.153 7.75909 10.334 7.20944 9.68949C6.65979 9.04503 5.89875 8.61718 5.06251 8.4825V6.75C5.06251 6.10353 5.31931 5.48355 5.77643 5.02643C6.23355 4.56931 6.85354 4.3125 7.50001 4.3125ZM19.5328 14.4375H19.5C19.3508 14.4375 19.2077 14.4968 19.1023 14.6023C18.9968 14.7077 18.9375 14.8508 18.9375 15V18.75C18.9375 18.7997 18.9178 18.8474 18.8826 18.8826C18.8474 18.9177 18.7997 18.9375 18.75 18.9375H5.25001C5.20028 18.9375 5.15259 18.9177 5.11742 18.8826C5.08226 18.8474 5.06251 18.7997 5.06251 18.75V15C5.06251 14.8508 5.00324 14.7077 4.89775 14.6023C4.79226 14.4968 4.64919 14.4375 4.50001 14.4375H4.46719C3.98655 14.431 3.51855 14.2826 3.12205 14.0109C2.72554 13.7391 2.41823 13.3562 2.23877 12.9103C2.0593 12.4644 2.01569 11.9753 2.11341 11.5047C2.21113 11.034 2.44583 10.6028 2.78799 10.2652C3.13016 9.92755 3.5645 9.69864 4.03641 9.60721C4.50832 9.51579 4.99673 9.56594 5.44022 9.75135C5.8837 9.93677 6.26247 10.2492 6.52888 10.6493C6.79529 11.0494 6.93746 11.5193 6.93751 12V15.75C6.93751 15.8992 6.99677 16.0423 7.10226 16.1477C7.20775 16.2532 7.35082 16.3125 7.50001 16.3125C7.64919 16.3125 7.79226 16.2532 7.89775 16.1477C8.00324 16.0423 8.06251 15.8992 8.06251 15.75V13.3125H15.9375V15.75C15.9375 15.8992 15.9968 16.0423 16.1023 16.1477C16.2077 16.2532 16.3508 16.3125 16.5 16.3125C16.6492 16.3125 16.7923 16.2532 16.8978 16.1477C17.0032 16.0423 17.0625 15.8992 17.0625 15.75V12C17.0625 11.5193 17.2047 11.0494 17.4711 10.6493C17.7375 10.2492 18.1163 9.93677 18.5598 9.75135C19.0033 9.56594 19.4917 9.51579 19.9636 9.60721C20.4355 9.69864 20.8699 9.92755 21.212 10.2652C21.5542 10.6028 21.7889 11.034 21.8866 11.5047C21.9843 11.9753 21.9407 12.4644 21.7612 12.9103C21.5818 13.3562 21.2745 13.7391 20.878 14.0109C20.4815 14.2826 20.0135 14.431 19.5328 14.4375Z" fill="black"/>
    </symbol>

    <symbol id="rueda">
        <path d="M18.7612 5.23874C16.963 3.46948 14.5386 2.48245 12.016 2.49263C9.49334 2.50282 7.07693 3.50939 5.29309 5.29311C3.50925 7.07683 2.50251 9.49316 2.49215 12.0158C2.48179 14.5384 3.46865 16.9629 5.23778 18.7612C6.12305 19.6611 7.17772 20.3768 8.34096 20.867C9.5042 21.3572 10.753 21.6123 12.0153 21.6175C13.2776 21.6227 14.5284 21.3779 15.6957 20.8972C16.8629 20.4166 17.9234 19.7096 18.816 18.817C19.7087 17.9244 20.4157 16.864 20.8965 15.6968C21.3772 14.5296 21.6221 13.2788 21.617 12.0164C21.6119 10.7541 21.3569 9.50533 20.8668 8.34206C20.3766 7.17878 19.661 6.12406 18.7612 5.23874ZM9.19872 11.489L11.0409 9.31968L13.8403 9.83155L14.7975 12.5109L12.9553 14.6803L10.1559 14.1684L9.19872 11.489ZM19.6809 8.50218C20.2081 9.66536 20.465 10.9328 20.4326 12.2095C20.4001 13.4861 20.079 14.7389 19.4934 15.8737L14.2303 14.9137L19.6809 8.50218ZM19.1034 7.44467L15.6403 11.5209L12.8118 3.60186C14.7622 3.78438 16.5867 4.64492 17.9681 6.03374C18.3953 6.46259 18.7759 6.93555 19.1034 7.44467ZM6.03372 6.03842C7.516 4.5457 9.50557 3.66521 11.6072 3.57186L13.4062 8.60811L5.13278 7.0978C5.40363 6.71918 5.70494 6.36331 6.03372 6.03374V6.03842ZM4.49997 8.12624L9.7631 9.08624L4.31903 15.4978C3.79188 14.3346 3.5349 13.0672 3.56737 11.7905C3.59985 10.5139 3.92093 9.26112 4.50653 8.12624H4.49997ZM4.89466 16.5553L8.35778 12.479L11.1862 20.3981C9.23592 20.2156 7.41134 19.3551 6.02997 17.9662C5.60337 17.5373 5.22344 17.0643 4.89653 16.5553H4.89466ZM17.9643 17.9615C16.4816 19.4529 14.492 20.3318 12.3909 20.4234L10.5937 15.3919L18.8662 16.9022C18.5957 17.2808 18.2947 17.6366 17.9662 17.9662L17.9643 17.9615Z" fill="black"/>
    </symbol>

</svg>